<svg id="Layer_1" data-name="Layer 1" width="459" height="176" xmlns="http://www.w3.org/2000/svg" viewBox="0 0 195.7 110.64"><defs><style>.cls-1{fill:#00c7ff;}</style></defs>
<g opacity="0.5">
<path class="cls-1" d="M40.42,57.36c4-.78,8.07-1.62,11.74.75,4.32,2.78,6,8.28,5.68,13.2C57.25,80.56,50,88.22,41.13,90.16c-2.21.49-2.54,3.73-.62,4.8,4.66,2.6,11.25,6,11.63,12.07.53,8.45-9.51,8.08-15.33,7.58-1.83-.15-2.82,1.8-2.53,3.33a85.31,85.31,0,0,1,1.28,23c-.31,3.85-.38,8.62-3.93,11-2.7,1.79-6.47,1.35-9.11-.2-6.26-3.66-7.63-11.69-7.93-18.28-.31-7-.15-14-.2-20.92l-.14-21.7c-.05-6.12-.38-12.46,1.1-18.45C18.92,58,32.76,57.1,45.22,57.59c3.38.14,3.38-5.11,0-5.25-14.3-.57-29.8,1.39-34.54,17.2C8.26,77.61,9,86.46,9,94.76q.11,15.78.22,31.56c0,8-.12,16.64,4.33,23.64,3.43,5.4,9.25,9.18,15.82,8.16,6.81-1.06,10-6,10.91-12.44a89.66,89.66,0,0,0-1-29.14l-2.53,3.32c8,.68,18.93-.22,20.53-10.06,1.54-9.43-7.06-15.41-14.18-19.37l-.63,4.8c12-2.65,21.41-14.19,20.54-26.69-.4-5.71-2.94-11.38-7.77-14.66C50.2,50.43,44.78,51.18,39,52.3c-3.31.63-1.91,5.7,1.4,5.06Z" transform="translate(-8.88 -51.36)"/>
<path class="cls-1" d="M61.26,62.67c12.19-7.93,27.21,8.88,29.58,19.74,2.28,10.51-2.36,18.83-5.66,28.31A2.65,2.65,0,0,0,87.71,114c4,.19,9.23.12,11.14,4.17,1,2.2,1.19,5.36,1.43,7.71.57,5.58.91,11.77-.44,17.27-1.86,7.63-11.13,13-18.5,8.77-4.6-2.65-4.39-7.81-4.47-12.47q-.15-7.85-.28-15.7c0-2.85-4.58-3.7-5.16-.69a135.56,135.56,0,0,1-3.5,14.61c-1.14,3.73-2.39,9.61-5.93,11.85C51.72,156.05,47.37,137,46,130.47c-.7-3.3-5.76-1.9-5.06,1.4,2.09,9.83,7.15,27.76,20.65,23.47,4.64-1.47,6.8-4.38,8.7-8.77,3-7,4.79-14.57,6.23-22.08l-5.16-.7c.13,7.46-.49,15.39.66,22.76a13.75,13.75,0,0,0,7.82,10.51c8.05,3.78,18.46.27,23-7.23s3.49-18.65,2.34-26.92c-.44-3.13-.89-7-3-9.58-3.32-4-9.7-4.32-14.47-4.54l2.53,3.32C92.11,106.74,95.05,101.67,96,96c1.13-7.13.91-14.44-2.13-21.08C88.41,63.15,71.71,49.61,58.61,58.14c-2.82,1.83-.19,6.38,2.65,4.53Z" transform="translate(-8.88 -51.36)"/>
<path class="cls-1" d="M69.85,75.88a24.64,24.64,0,0,0-2.93,3.45,10.28,10.28,0,0,0-1.11,4.25c-.25,2.24,0,4.24,1.91,5.64a9.34,9.34,0,0,0,6,1.66c3.79-.29,8.82-2.46,8.48-6.92-.3-4-2.71-6.43-5.78-8.79-2.68-2.06-5.29,2.5-2.65,4.54,1.28,1,2.49,1.9,3,3.46.33,1.09.26,1.2-.75,1.7a6.52,6.52,0,0,1-2.9.79c-.72,0-1.88-.21-2.16-.78a5.8,5.8,0,0,1,.32-2.39c.29-.92,1.48-1.95,2.31-2.9,2.22-2.53-1.48-6.26-3.71-3.71Z" transform="translate(-8.88 -51.36)"/>
<path class="cls-1" d="M95.05,72.93a68.8,68.8,0,0,1,27.48-6.47c7.43-.14,16.71.86,21.15,7.71,4.8,7.41,1.41,16.88-4.38,22.59-6.54,6.46-15.58,9.13-24.25,11.33-3.29.83-1.89,5.75,1.4,5.06,4.11-.86,8.94-.32,11.51,3.42s.9,10.52-4.84,9.62c-3.26-.51-4.76,4.27-1.4,5.06,5,1.19,11.46,2.52,13.79,7.71,2.51,5.59-2.14,10.75-6.63,13.48-9.15,5.56-20.9,5.65-30.49,1.19-3-1.41-5.71,3.11-2.65,4.54,12.73,5.91,30.58,5.57,40.92-5.15,4.14-4.29,6.34-10.79,3.61-16.44-3.2-6.6-10.55-8.83-17.15-10.39l-1.4,5.06c7.58,1.19,14.35-5.14,12.59-13-2-8.88-11.2-11.85-19.26-10.17l1.4,5.06c10.49-2.65,21.4-6.29,28.58-14.88,5.84-7,8.28-17.09,3.91-25.47-10-19.11-41.53-11.33-56.54-4.4-3.06,1.42-.4,5.94,2.65,4.53Z" transform="translate(-8.88 -51.36)"/>
<path class="cls-1" d="M155.41,103.26l.51,18.73c.09,3.37,5.34,3.38,5.25,0l-.51-18.73c-.1-3.37-5.35-3.39-5.25,0Z" transform="translate(-8.88 -51.36)"/>
<path class="cls-1" d="M159.59,102.31a24.63,24.63,0,0,1,10.58,9.35c1.09,1.81,2.55,4.26,2.54,6.45,0,5.21-4.65,5.41-8.56,4.86-3.31-.47-4.74,4.59-1.4,5.06,7.7,1.09,16.5-1,15.2-10.62-1.16-8.6-8.21-16-15.71-19.64-3-1.47-5.69,3-2.65,4.54Z" transform="translate(-8.88 -51.36)"/>
<path class="cls-1" d="M146,71.17A84,84,0,0,1,178.1,88.74c9.13,8.07,19.67,19.92,21.08,32.52,1.6,14.35-14.19,23-25.83,26.7a60.91,60.91,0,0,1-38.69-.55c-3.2-1.11-4.57,4-1.4,5.06a65.77,65.77,0,0,0,43.76-.21c12-4.37,26.57-13.09,27.51-27.29s-10.31-28.08-19.91-37.34a89.86,89.86,0,0,0-37.2-21.53c-3.25-.95-4.63,4.12-1.39,5.07Z" transform="translate(-8.88 -51.36)"/>
<path class="cls-1" d="M105.65,79.9c6.72-3.8,12.69-4.64,19.86-1.47,3.06,1.36,5.74-3.16,2.65-4.53-8.94-4-16.68-3.33-25.16,1.47-2.94,1.66-.29,6.2,2.65,4.53Z" transform="translate(-8.88 -51.36)"/>
<path class="cls-1" d="M90.45,133.7a4.57,4.57,0,0,1-.87,5.23c-2.36,2.42,1.35,6.14,3.71,3.71A10,10,0,0,0,95,131.05c-1.52-3-6-.36-4.53,2.65Z" transform="translate(-8.88 -51.36)"/>
<path class="cls-1" d="M29.54,70.45c4.48-4.24,10.3-3.87,16.08-3.15,3.34.41,3.31-4.84,0-5.25-7.33-.91-14.22-.59-19.8,4.69-2.45,2.33,1.26,6,3.72,3.71Z" transform="translate(-8.88 -51.36)"/>
<path class="cls-1" d="M175.67,135.17a20.07,20.07,0,0,1-11.3,4.58c-3.35.25-3.37,5.51,0,5.25a26.07,26.07,0,0,0,15-6.12c2.6-2.17-1.13-5.86-3.71-3.71Z" transform="translate(-8.88 -51.36)"/>
</g>
</svg>