<?xml version="1.0" encoding="utf-8"?>
<!-- Generator: Adobe Illustrator 26.0.1, SVG Export Plug-In . SVG Version: 6.00 Build 0)  -->
<svg version="1.1" id="Layer_1" xmlns="http://www.w3.org/2000/svg" xmlns:xlink="http://www.w3.org/1999/xlink" x="0px" y="0px"
	 viewBox="0 0 909 909" style="enable-background:new 0 0 909 909;" xml:space="preserve">
<style type="text/css">
	.st0{fill:none;stroke:#00C7FF;stroke-width:50;}
	.st1{fill:#00C7FF;}
	.st2{fill:#FFFFFF;}
	.st3{fill:none;stroke:#000000;stroke-width:2;}
</style>
<path class="st0" d="M606.8,163c-241.7,164.2-453,303.5-432.4,378c30.9,112,523.6-258,576-156c41.6,81-506.9,384.5-506.9,384.5"/>
<circle class="st1" cx="667.3" cy="122" r="25"/>
<circle class="st1" cx="605.3" cy="164" r="25"/>
<circle class="st1" cx="243" cy="769.8" r="25"/>
<circle class="st1" cx="181" cy="812" r="25"/>
<circle class="st2" cx="463" cy="441" r="250"/>
<path class="st0" d="M175,542c30.9,112,523.6-258,576-156"/>
<g>
	<path d="M515.8,387.6c1.4-0.3,2.9-0.7,4.3-0.9l-10.7-46L374,372.2l42.7,183.1l69.6-16.2l-15.9-68.3l65.8-15.3l-11.9-51.2
		c-1.4,0.4-2.8,0.8-4.2,1.1l-61.5,14.3l-4.1-17.7L515.8,387.6z"/>
	<path class="st3" d="M515.8,387.6c1.4-0.3,2.9-0.7,4.3-0.9l-10.7-46L374,372.2l42.7,183.1l69.6-16.2l-15.9-68.3l65.8-15.3
		l-11.9-51.2c-1.4,0.4-2.8,0.8-4.2,1.1l-61.5,14.3l-4.1-17.7L515.8,387.6z"/>
</g>
</svg>
